<?xml version="1.0" encoding="UTF-8"?>
<svg id="sort_btns" xmlns="http://www.w3.org/2000/svg" viewBox="0 0 36 36">
  <defs>
    <style>
      .cls-1 {
        fill: #2a241e;
      }
    </style>
  </defs>
  <path class="cls-1" d="M29.06,23.62h0c-.1,0-.2,0-.3,.02l-10.28-10.28c-.72-.72-1.77-.92-2.67-.61l1.61-4.7c.26-.77,0-1.92-.58-2.5l-3.36-3.36c-.58-.58-1.72-.85-2.5-.58l-2.02,.69c-.33,.11-.54,.3-.59,.53-.05,.23,.05,.49,.3,.74l2.17,2.16c.76,.77,.76,2.01,0,2.78l-2.32,2.32c-.37,.37-.86,.57-1.38,.57s-1.02-.2-1.39-.58l-2.16-2.16c-.25-.25-.51-.35-.74-.3s-.42,.26-.53,.59l-.69,2.02c-.26,.78,0,1.92,.58,2.5l3.36,3.36c.58,.58,1.72,.85,2.49,.58l4.71-1.61c-.31,.91-.12,1.95,.61,2.67l10.28,10.28c0,.1-.01,.2-.01,.3,0,3,2.44,5.44,5.44,5.44s5.44-2.44,5.44-5.44-2.44-5.44-5.44-5.44Zm0,8.29c-1.57,0-2.85-1.28-2.85-2.85,0-.76,.29-1.48,.84-2.02,.54-.54,1.25-.83,2.02-.83,1.57,0,2.85,1.28,2.85,2.85s-1.28,2.85-2.85,2.85Z"
  fill="currentColor"/>
</svg>