<svg xmlns="http://www.w3.org/2000/svg">
    <defs>

        <symbol id="clear-output" viewBox="0 0 40 40">
            <path d="M20,2C10.06,2,2,10.06,2,20s8.06,18,18,18,18-8.06,18-18S29.94,2,20,2ZM20,5c3.6,0,6.9,1.27,9.49,3.39L8.39,29.49c-2.12-2.59-3.39-5.89-3.39-9.49,0-8.27,6.73-15,15-15ZM20,35c-3.6,0-6.9-1.27-9.49-3.39L31.61,10.51c2.12,2.59,3.39,5.89,3.39,9.49,0,8.27-6.73,15-15,15Z"
                  fill="currentColor"/>
        </symbol>

        <symbol id="settings" viewBox="0 0 40 40">
            <path d="M34.25,20c0-.87-.08-1.74-.24-2.6l4.82-2.78-4.75-8.23-4.82,2.78c-1.33-1.14-2.86-2.02-4.51-2.61V1.01h-9.5v5.56c-1.65.58-3.18,1.47-4.51,2.61l-4.82-2.78L1.18,14.62l4.82,2.78c-.32,1.72-.32,3.49,0,5.21l-4.82,2.78,4.75,8.23,4.82-2.78c1.33,1.14,2.86,2.02,4.51,2.6v5.56h9.5v-5.56c1.65-.58,3.18-1.47,4.51-2.61l4.82,2.78,4.75-8.23-4.82-2.78c.16-.86.24-1.73.24-2.6ZM24.75,20c0,.94-.28,1.86-.8,2.64-.52.78-1.26,1.39-2.13,1.75-.87.36-1.82.45-2.74.27-.92-.18-1.77-.64-2.43-1.3-.66-.66-1.12-1.51-1.3-2.43-.18-.92-.09-1.88.27-2.74.36-.87.97-1.61,1.75-2.13.78-.52,1.7-.8,2.64-.8,1.26,0,2.47.5,3.36,1.39.89.89,1.39,2.1,1.39,3.36Z"
                  fill="currentColor"/>
        </symbol>

        <symbol id="settings-2" viewBox="0 0 40 40">
            <path d="M18.22,5.75c-.35-1.36-1.14-2.57-2.25-3.43-1.11-.86-2.47-1.33-3.88-1.33s-2.77.47-3.88,1.33c-1.11.86-1.9,2.07-2.25,3.43H1.01v3.17h4.95c.35,1.36,1.14,2.57,2.25,3.43,1.11.86,2.47,1.33,3.88,1.33s2.77-.47,3.88-1.33c1.11-.86,1.9-2.07,2.25-3.43h20.78v-3.17h-20.78Z"
                  fill="currentColor"/>
            <path d="M27.91,13.67c-1.4,0-2.77.47-3.88,1.33s-1.9,2.06-2.25,3.42H1.01v3.17h20.78c.35,1.36,1.14,2.57,2.25,3.43,1.11.86,2.47,1.33,3.88,1.33s2.77-.47,3.88-1.33c1.11-.86,1.9-2.07,2.25-3.43h4.95v-3.17h-4.95c-.35-1.36-1.14-2.56-2.25-3.42s-2.47-1.33-3.88-1.33Z"
                  fill="currentColor"/>
            <path d="M12.09,26.33c-1.4,0-2.77.47-3.88,1.33-1.11.86-1.9,2.06-2.25,3.42H1.01v3.17h4.95c.35,1.36,1.14,2.57,2.25,3.43,1.11.86,2.47,1.33,3.88,1.33s2.77-.47,3.88-1.33c1.11-.86,1.9-2.07,2.25-3.43h20.78v-3.17h-20.78c-.35-1.36-1.14-2.56-2.25-3.42-1.11-.86-2.47-1.33-3.88-1.33Z"
                  fill="currentColor"/>
        </symbol>

        <symbol id="github" viewBox="0 0 40 40">
            <path d="M20,1.5c10.54,0,19,8.46,19,19,0,8.12-5.18,15.37-12.95,17.96-.86.17-1.38-.35-1.38-.86v-5.18c0-1.73-.52-2.94-1.21-3.45,4.15-.52,8.64-2.07,8.64-9.33,0-2.07-.69-3.8-1.9-5.18.17-.52.86-2.42-.17-5.01,0,0-1.55-.52-5.18,1.9-1.55-.52-3.11-.69-4.84-.69s-3.11.17-4.66.69c-3.63-2.42-5.18-1.9-5.18-1.9-1.21,2.42-.52,4.49-.35,4.84-1.21,1.38-1.9,3.11-1.9,5.18,0,7.25,4.49,8.98,8.64,9.33-.52.52-1.04,1.38-1.21,2.59-1.04.52-3.8,1.38-5.53-1.55-.35-.52-1.38-1.9-2.94-1.9s-.69.86,0,1.21c.86.52,1.73,2.07,1.9,2.76.35,1.04,1.55,3.11,6.39,2.25v3.45c0,.52-.35,1.04-1.38.86C6.18,35.87,1,28.62,1,20.5,1,9.96,9.46,1.5,20,1.5Z"
                  fill="currentColor"/>
        </symbol>

        <symbol id="refresh" viewBox="0 0 40 40">
            <path d="M20,4.17c2.1,0,4.19.43,6.13,1.24,1.94.82,3.7,2.01,5.18,3.51h-6.56v3.17h8.14c.78,0,1.53-.31,2.08-.86.55-.55.86-1.3.86-2.08V1h-3.17v4.84c-2.73-2.44-6.12-4.05-9.74-4.61-3.62-.57-7.33-.07-10.68,1.43-3.35,1.5-6.19,3.93-8.19,7.01-2,3.08-3.06,6.67-3.06,10.33h3.17c0-4.2,1.67-8.22,4.64-11.19,2.97-2.97,6.99-4.64,11.19-4.64h0Z"
                  fill="currentColor"/>
            <path d="M35.83,20c0,3.14-.94,6.22-2.69,8.83s-4.24,4.64-7.16,5.83c-2.91,1.19-6.11,1.48-9.19.85-3.08-.64-5.9-2.17-8.1-4.42h6.56v-3.17H7.11c-.78,0-1.53.31-2.08.86-.55.55-.86,1.3-.86,2.08v8.14h3.17v-4.84c2.73,2.44,6.12,4.05,9.74,4.61,3.62.57,7.33.07,10.68-1.43s6.19-3.93,8.19-7.01,3.06-6.67,3.06-10.33h-3.18Z"
                  fill="currentColor"/>
        </symbol>

        <symbol id="reset-jsx" viewBox="0 0 40 40">
            <path d="M10.99,7.14c3.53-2.29,7.82-3.08,11.93-2.21,2.06.44,4.01,1.29,5.75,2.5,1.73,1.2,3.21,2.74,4.34,4.52l-4.88-1.04-.66,3.1,6.44,1.37c.76.16,1.56.01,2.22-.41.66-.42,1.12-1.09,1.28-1.86l1.6-7.51-3.1-.66-.91,4.28c-2.17-2.97-5.15-5.24-8.58-6.55-3.43-1.31-7.17-1.6-10.76-.83-3.59.77-6.89,2.56-9.49,5.16C3.56,9.59,1.77,12.88,1,16.48l3.1.66c.88-4.11,3.36-7.71,6.89-10Z"
                  fill="currentColor"/>
            <path d="M4.03,25.94h4.28v7.85c0,.64-.19,1.15-.56,1.51-.38.37-.89.55-1.52.55s-1.15-.19-1.52-.57c-.38-.38-.56-.9-.56-1.54H1c0,1.48.47,2.65,1.41,3.52.94.87,2.21,1.31,3.81,1.31s2.89-.43,3.82-1.29c.93-.86,1.4-2.02,1.4-3.5v-10.67h-7.42v2.82Z"
                  fill="currentColor"/>
            <path d="M21.17,29.35l-1.53-.36c-.52-.11-.91-.32-1.18-.64-.27-.31-.41-.67-.41-1.08,0-.54.16-.95.48-1.23.32-.28.78-.42,1.38-.42.64,0,1.13.14,1.47.42.34.28.51.66.51,1.15h3.13c0-1.31-.46-2.35-1.37-3.12-.91-.77-2.15-1.16-3.71-1.16s-2.77.4-3.68,1.2c-.9.8-1.36,1.87-1.36,3.21,0,1.2.36,2.21,1.08,3.04.72.83,1.72,1.4,3.02,1.7l1.55.36c.5.11.89.33,1.17.65.28.32.42.7.42,1.15,0,.52-.19.92-.55,1.21-.37.29-.88.44-1.54.44s-1.22-.15-1.62-.45c-.4-.3-.6-.71-.6-1.22h-3.13c0,.89.21,1.66.65,2.32.43.66,1.05,1.16,1.84,1.53.79.36,1.73.54,2.8.54s2-.19,2.79-.56c.79-.38,1.4-.9,1.84-1.59.44-.68.66-1.47.66-2.36,0-1.24-.35-2.26-1.04-3.06-.7-.8-1.72-1.35-3.07-1.66Z"
                  fill="currentColor"/>
            <path d="M38.73,23.12h-3.36l-1.63,3.34c-.14.31-.26.58-.35.83-.1.25-.16.43-.19.54-.03-.11-.09-.29-.2-.54-.1-.25-.23-.53-.39-.83l-1.59-3.34h-3.45l3.82,7.37-4.09,7.88h3.36l1.84-3.76c.15-.31.28-.59.38-.86.1-.26.17-.47.21-.61.05.14.14.34.25.61.11.27.24.55.38.86l1.84,3.76h3.45l-4.09-7.88,3.82-7.37Z"
                  fill="currentColor"/>
        </symbol>

        <symbol id="practice" viewBox="0 0 40 40">
            <path d="M23.67,19.8c-.42.24-.82.53-1.2.84l-2.88-1.23-2.28,3.95,2.51,1.88c-.18.96-.18,1.95,0,2.91l-2.51,1.88,2.28,3.95,2.88-1.23c.74.64,1.6,1.13,2.52,1.46l.37,3.11h4.57s.37-3.11.37-3.11c.92-.33,1.78-.82,2.52-1.46l2.88,1.23,2.28-3.95-2.51-1.88c.18-.96.18-1.95,0-2.91l2.51-1.88-2.28-3.95-2.88,1.23c-.74-.64-1.6-1.13-2.52-1.46l-.37-3.11h-4.57s-.37,3.11-.37,3.11c-.46.16-.91.37-1.33.61ZM25.36,22.73c.79-.45,1.69-.66,2.59-.6.91.06,1.77.39,2.49.94.72.55,1.26,1.31,1.55,2.17.29.86.32,1.79.09,2.66-.23.88-.72,1.66-1.41,2.26-.68.6-1.53.98-2.43,1.1-.9.12-1.81-.03-2.63-.43-.81-.4-1.49-1.04-1.94-1.82-.61-1.05-.77-2.31-.46-3.48.32-1.18,1.08-2.18,2.14-2.79Z"
                  fill="currentColor"/>
            <path d="M11.74,5.69c-.34.2-.67.43-.97.69l-2.34-1-1.86,3.21,2.04,1.53c-.15.78-.15,1.59,0,2.37l-2.04,1.53,1.86,3.21,2.34-1c.61.52,1.3.92,2.05,1.18l.3,2.53h3.71s.3-2.53.3-2.53c.75-.27,1.45-.67,2.05-1.18l2.34,1,1.86-3.21-2.04-1.53c.15-.78.15-1.59,0-2.37l2.04-1.53-1.86-3.21-2.34,1c-.61-.52-1.3-.92-2.05-1.18l-.3-2.53h-3.71s-.3,2.53-.3,2.53c-.37.13-.74.3-1.08.5ZM13.12,8.08c.64-.37,1.37-.54,2.11-.49.74.05,1.44.31,2.03.76.59.45,1.02,1.06,1.26,1.76.24.7.26,1.45.07,2.17-.19.71-.59,1.35-1.14,1.84-.55.49-1.24.8-1.97.89-.73.1-1.48-.03-2.14-.35-.66-.33-1.21-.84-1.58-1.48-.49-.86-.63-1.88-.37-2.83.26-.96.88-1.77,1.74-2.27Z"
                  fill="currentColor"/>
            <path d="M6.24,22.56c-.28.16-.55.35-.8.56l-1.92-.82-1.52,2.63,1.67,1.25c-.12.64-.12,1.3,0,1.94l-1.67,1.25,1.52,2.63,1.92-.82c.5.42,1.07.75,1.68.97l.25,2.07h3.04s.25-2.07.25-2.07c.61-.22,1.18-.55,1.68-.97l1.92.82,1.52-2.63-1.67-1.25c.12-.64.12-1.3,0-1.94l1.67-1.25-1.52-2.63-1.92.82c-.5-.42-1.07-.75-1.68-.97l-.25-2.07h-3.04s-.25,2.07-.25,2.07c-.31.11-.6.25-.88.41ZM7.36,24.51c.52-.3,1.12-.44,1.73-.4.6.04,1.18.26,1.66.62.48.37.84.87,1.03,1.44.19.57.21,1.19.06,1.77-.16.58-.48,1.11-.94,1.51-.45.4-1.02.65-1.62.73-.6.08-1.21-.02-1.75-.29-.54-.27-.99-.69-1.29-1.21-.41-.7-.51-1.54-.31-2.32.21-.78.72-1.45,1.42-1.85Z"
                  fill="currentColor"/>
        </symbol>

        <symbol id="practice-2" viewBox="0 0 40 40">
            <path d="M30.8,32.6c0,1.43-.57,2.81-1.58,3.82-1.01,1.01-2.39,1.58-3.82,1.58h-10.8c-1.43,0-2.81-.57-3.82-1.58-1.01-1.01-1.58-2.39-1.58-3.82v-1.56c-2.17-1.15-3.99-2.86-5.26-4.97-1.27-2.1-1.94-4.52-1.94-6.97v-3.6c0-3.58,1.42-7.01,3.95-9.55,2.53-2.53,5.97-3.95,9.55-3.95h9c3.58,0,7.01,1.42,9.55,3.95,2.53,2.53,3.95,5.97,3.95,9.55v3.6c0,2.46-.67,4.87-1.94,6.97-1.27,2.1-3.09,3.82-5.26,4.97v1.56ZM12.8,21.8c.95,0,1.87-.38,2.55-1.05.68-.67,1.05-1.59,1.05-2.55s-.38-1.87-1.05-2.55c-.68-.68-1.59-1.05-2.55-1.05s-1.87.38-2.55,1.05-1.05,1.59-1.05,2.55.38,1.87,1.05,2.55c.68.68,1.59,1.05,2.55,1.05ZM27.2,21.8c.95,0,1.87-.38,2.55-1.05.68-.67,1.05-1.59,1.05-2.55s-.38-1.87-1.05-2.55c-.68-.68-1.59-1.05-2.55-1.05s-1.87.38-2.55,1.05c-.68.68-1.05,1.59-1.05,2.55s.38,1.87,1.05,2.55c.68.68,1.59,1.05,2.55,1.05ZM20,29c-.48,0-.94.19-1.27.53-.34.34-.53.8-.53,1.27v3.6c0,.48.19.94.53,1.27.34.34.8.53,1.27.53s.94-.19,1.27-.53c.34-.34.53-.8.53-1.27v-3.6c0-.48-.19-.94-.53-1.27-.34-.34-.8-.53-1.27-.53Z"
                  fill="currentColor"/>
        </symbol>

    </defs>
</svg>