<svg xmlns="http://www.w3.org/2000/svg">
 <defs>

  <symbol id="add-script" viewBox="0 0 36 36">
   <polygon points="34 14 22 14 22 2 14 2 14 14 2 14 2 22 14 22 14 34 22 34 22 22 34 22 34 14"
            fill="currentColor"/>
  </symbol>

  <symbol id="open-store-folder" viewBox="0 0 36 36">
   <path
     d="M31.56,11.18V4.81h-12.56L14.38,1.94H0V34.06H31.57c4.24,0,4.43-6.14,4.43-7.92V11.18h-4.44ZM3.88,5.82H13.27l3.69,2.29,.94,.58h9.78v2.5H6.38v14.07c0,1.45-.86,3.19-2.28,4.93h-.22V5.82Zm29.91,20.32c0,.95-.11,5.7-2.22,5.7H5.6c1.92-2.29,3-4.59,3-6.59V13.4h25.19v12.74Z"
     fill="currentColor"/>
  </symbol>

  <symbol id="size-minus" viewBox="0 0 36 36">
   <circle cx="19.72" cy="10.95" r="8.78" fill="none" stroke="currentColor" stroke-width="4.25px"/>
   <line x1="34.7" y1="27.96" x2="21.04" y2="27.96" fill="none" stroke="currentColor" stroke-width="4.25px"/>
   <line x1="3.06" y1="26.92" x2="12.01" y2="18.72" fill="none" stroke="currentColor" stroke-width="5.67px"/>
  </symbol>

  <symbol id="size-plus" viewBox="0 0 36 36">
   <circle cx="19.72" cy="10.95" r="8.78" fill="none" stroke="currentColor" stroke-width="4.25px"/>
   <line x1="27.87" y1="34.79" x2="27.87" y2="21.13" fill="none" stroke="currentColor" stroke-width="4.25px"/>
   <line x1="34.7" y1="27.96" x2="21.04" y2="27.96" fill="none" stroke="currentColor" stroke-width="4.25px"/>
   <line x1="3.06" y1="26.92" x2="12.01" y2="18.72" fill="none" stroke="currentColor" stroke-width="5.67px"/>
  </symbol>

  <symbol id="sort-buttons" viewBox="0 0 36 36">
   <path
     d="M29.06,23.62h0c-.1,0-.2,0-.3,.02l-10.28-10.28c-.72-.72-1.77-.92-2.67-.61l1.61-4.7c.26-.77,0-1.92-.58-2.5l-3.36-3.36c-.58-.58-1.72-.85-2.5-.58l-2.02,.69c-.33,.11-.54,.3-.59,.53-.05,.23,.05,.49,.3,.74l2.17,2.16c.76,.77,.76,2.01,0,2.78l-2.32,2.32c-.37,.37-.86,.57-1.38,.57s-1.02-.2-1.39-.58l-2.16-2.16c-.25-.25-.51-.35-.74-.3s-.42,.26-.53,.59l-.69,2.02c-.26,.78,0,1.92,.58,2.5l3.36,3.36c.58,.58,1.72,.85,2.49,.58l4.71-1.61c-.31,.91-.12,1.95,.61,2.67l10.28,10.28c0,.1-.01,.2-.01,.3,0,3,2.44,5.44,5.44,5.44s5.44-2.44,5.44-5.44-2.44-5.44-5.44-5.44Zm0,8.29c-1.57,0-2.85-1.28-2.85-2.85,0-.76,.29-1.48,.84-2.02,.54-.54,1.25-.83,2.02-.83,1.57,0,2.85,1.28,2.85,2.85s-1.28,2.85-2.85,2.85Z"
     fill="currentColor"/>
  </symbol>

  <symbol id="reload" viewBox="0 0 36 36">
   <path
     d="M18.11,29.03c-6.02,0-10.91-4.89-10.91-10.91S12.09,7.21,18.11,7.21c2.58,0,4.95,.91,6.82,2.41l-5.41,4.68,14.25,2.1-.03-14.4-5,4.33c-2.81-2.54-6.54-4.09-10.63-4.09C9.34,2.24,2.23,9.35,2.23,18.12s7.11,15.88,15.87,15.88c6.88,0,12.73-4.38,14.94-10.49l-5.07-.75c-1.75,3.7-5.51,6.27-9.87,6.27Z"
     fill="currentColor"/>
  </symbol>

  <symbol id="home" viewBox="0 0 36 36">
   <polygon points="33.55 14.32 18 1.63 .8 15.67 4.02 19.69 18 8.07 31.98 19.75 35.2 15.67 33.55 14.32"
            fill="currentColor"/>
   <polygon
     points="5.99 13.51 5.99 34.37 29.79 34.37 29.79 13.51 27.53 13.51 27.53 32.1 8.26 32.1 8.26 13.51 5.99 13.51 5.99 13.51"
     fill="currentColor"/>
   <rect x="23.84" y="2.35" width="4.82" height="8.89" fill="currentColor"/>
   <rect x="13.71" y="22.23" width="8.33" height="11" fill="currentColor"/>
  </symbol>

 </defs>
</svg>